<svg width="15" height="18" viewBox="0 0 15 18" fill="none" xmlns="http://www.w3.org/2000/svg">
<path d="M7.90612 7.02619C8.03675 6.65494 8.59012 6.65494 8.72075 7.02619L9.48668 9.20532C9.65528 9.68434 9.93933 10.1196 10.3163 10.4765C10.6933 10.8335 11.1529 11.1024 11.6586 11.2618L13.9576 11.9874C14.3495 12.1112 14.3495 12.6354 13.9576 12.7592L11.6574 13.4848C11.1518 13.6445 10.6924 13.9136 10.3156 14.2708C9.9388 14.6279 9.655 15.0633 9.48668 15.5424L8.72075 17.7204C8.69259 17.8017 8.63804 17.8725 8.5649 17.9227C8.49176 17.9729 8.40375 17.9999 8.31343 17.9999C8.22312 17.9999 8.13511 17.9729 8.06197 17.9227C7.98883 17.8725 7.93428 17.8017 7.90612 17.7204L7.14018 15.5413C6.97171 15.0624 6.68784 14.6272 6.31106 14.2703C5.93429 13.9133 5.47495 13.6444 4.96943 13.4848L2.66925 12.7592C2.58344 12.7325 2.50871 12.6808 2.45574 12.6115C2.40276 12.5422 2.37424 12.4589 2.37424 12.3733C2.37424 12.2878 2.40276 12.2044 2.45574 12.1351C2.50871 12.0658 2.58344 12.0141 2.66925 11.9874L4.96943 11.2618C5.47495 11.1022 5.93429 10.8333 6.31106 10.4763C6.68784 10.1194 6.97171 9.68422 7.14018 9.20532L7.90612 7.02619ZM3.31881 1.28982C3.33584 1.2411 3.36864 1.1987 3.41255 1.16865C3.45647 1.1386 3.50926 1.12243 3.56343 1.12243C3.61761 1.12243 3.6704 1.1386 3.71431 1.16865C3.75823 1.1987 3.79103 1.2411 3.80806 1.28982L4.26762 2.59707C4.47306 3.17982 4.95518 3.63657 5.57031 3.83119L6.95019 4.26657C7.00161 4.2827 7.04636 4.31377 7.07808 4.35538C7.1098 4.39698 7.12687 4.447 7.12687 4.49832C7.12687 4.54964 7.1098 4.59965 7.07808 4.64125C7.04636 4.68286 7.00161 4.71393 6.95019 4.73007L5.57031 5.16544C5.26676 5.26088 4.99091 5.42215 4.76476 5.63641C4.5386 5.85067 4.36837 6.11199 4.26762 6.39957L3.80806 7.70682C3.79103 7.75553 3.75823 7.79793 3.71431 7.82798C3.6704 7.85803 3.61761 7.8742 3.56343 7.8742C3.50926 7.8742 3.45647 7.85803 3.41255 7.82798C3.36864 7.79793 3.33584 7.75553 3.31881 7.70682L2.85925 6.39957C2.7585 6.11199 2.58827 5.85067 2.36211 5.63641C2.13595 5.42215 1.86011 5.26088 1.55656 5.16544L0.176685 4.73007C0.125259 4.71393 0.0805082 4.68286 0.0487901 4.64125C0.0170719 4.59965 0 4.54964 0 4.49832C0 4.447 0.0170719 4.39698 0.0487901 4.35538C0.0805082 4.31377 0.125259 4.2827 0.176685 4.26657L1.55656 3.83119C1.86011 3.73575 2.13595 3.57448 2.36211 3.36022C2.58827 3.14597 2.7585 2.88464 2.85925 2.59707L3.31881 1.28982ZM11.7132 0.10969C11.725 0.0776576 11.7469 0.0498809 11.7761 0.0302223C11.8052 0.0105636 11.8401 0 11.8759 0C11.9117 0 11.9466 0.0105636 11.9758 0.0302223C12.0049 0.0498809 12.0269 0.0776576 12.0386 0.10969L12.345 0.98044C12.4816 1.36969 12.8034 1.67457 13.2142 1.80394L14.1334 2.09419C14.1672 2.1053 14.1965 2.12611 14.2173 2.15373C14.238 2.18135 14.2492 2.21441 14.2492 2.24832C14.2492 2.28222 14.238 2.31528 14.2173 2.3429C14.1965 2.37052 14.1672 2.39133 14.1334 2.40244L13.2142 2.69269C13.0119 2.75682 12.8281 2.86458 12.6773 3.00748C12.5264 3.15039 12.4127 3.32453 12.345 3.51619L12.0386 4.38694C12.0269 4.41897 12.0049 4.44675 11.9758 4.46641C11.9466 4.48607 11.9117 4.49663 11.8759 4.49663C11.8401 4.49663 11.8052 4.48607 11.7761 4.46641C11.7469 4.44675 11.725 4.41897 11.7132 4.38694L11.4069 3.51619C11.3392 3.32453 11.2254 3.15039 11.0746 3.00748C10.9237 2.86458 10.7399 2.75682 10.5376 2.69269L9.61969 2.40244C9.58587 2.39133 9.55655 2.37052 9.5358 2.3429C9.51505 2.31528 9.5039 2.28222 9.5039 2.24832C9.5039 2.21441 9.51505 2.18135 9.5358 2.15373C9.55655 2.12611 9.58587 2.1053 9.61969 2.09419L10.5388 1.80394C10.9497 1.67457 11.2715 1.36969 11.4081 0.98044L11.7132 0.10969Z" fill="white"/>
</svg>
