<svg width="36" height="36" viewBox="0 0 36 36" fill="none" xmlns="http://www.w3.org/2000/svg">
<path d="M30.375 6.75H5.62498C5.02824 6.75 4.45595 6.98705 4.03399 7.40901C3.61203 7.83097 3.37498 8.40326 3.37498 9V31.5C3.37239 31.9291 3.49376 32.3497 3.72452 32.7115C3.95527 33.0732 4.28559 33.3606 4.67576 33.5391C4.97308 33.6775 5.29701 33.7495 5.62498 33.75C6.15315 33.7486 6.66378 33.5603 7.06639 33.2184L7.07904 33.2086L11.6719 29.25H30.375C30.9717 29.25 31.544 29.0129 31.966 28.591C32.3879 28.169 32.625 27.5967 32.625 27V9C32.625 8.40326 32.3879 7.83097 31.966 7.40901C31.544 6.98705 30.9717 6.75 30.375 6.75ZM30.375 27H11.25C10.9799 27.0001 10.7188 27.0975 10.5145 27.2742L5.62498 31.5V9H30.375V27Z" fill="#2D3B96"/>
</svg>
