<svg width="40" height="40" viewBox="0 0 40 40" fill="none" xmlns="http://www.w3.org/2000/svg">
<path d="M4.16667 4.58337C4.16667 4.25185 4.03498 3.93391 3.80056 3.69949C3.56614 3.46507 3.24819 3.33337 2.91667 3.33337C2.58515 3.33337 2.26721 3.46507 2.03279 3.69949C1.79837 3.93391 1.66667 4.25185 1.66667 4.58337V35.4167C1.66667 36.1067 2.22667 36.6667 2.91667 36.6667H33.3333C33.6649 36.6667 33.9828 36.535 34.2172 36.3006C34.4516 36.0662 34.5833 35.7482 34.5833 35.4167C34.5833 35.0852 34.4516 34.7672 34.2172 34.5328C33.9828 34.2984 33.6649 34.1667 33.3333 34.1667H4.16667V4.58337Z" fill="white"/>
<path d="M37.1333 12.9667C37.3541 12.7297 37.4743 12.4163 37.4686 12.0925C37.4629 11.7686 37.3317 11.4596 37.1027 11.2306C36.8737 11.0016 36.5647 10.8704 36.2409 10.8647C35.917 10.859 35.6036 10.9792 35.3667 11.2L25.8333 20.7333L19.6333 14.5333C19.399 14.2992 19.0813 14.1678 18.75 14.1678C18.4188 14.1678 18.101 14.2992 17.8667 14.5333L7.86667 24.5333C7.74386 24.6478 7.64536 24.7858 7.57704 24.9391C7.50872 25.0924 7.47198 25.2579 7.46902 25.4258C7.46606 25.5936 7.49693 25.7603 7.5598 25.916C7.62267 26.0716 7.71624 26.213 7.83494 26.3317C7.95364 26.4504 8.09503 26.544 8.25068 26.6069C8.40632 26.6697 8.57304 26.7006 8.74088 26.6976C8.90872 26.6947 9.07424 26.6579 9.22757 26.5896C9.3809 26.5213 9.5189 26.4228 9.63334 26.3L18.75 17.1833L24.95 23.3833C25.1844 23.6174 25.5021 23.7489 25.8333 23.7489C26.1646 23.7489 26.4823 23.6174 26.7167 23.3833L37.1333 12.9667Z" fill="white"/>
</svg>
