<svg width="50" height="50" viewBox="0 0 50 50" fill="none" xmlns="http://www.w3.org/2000/svg">
<path d="M25 18.2291C23.5625 18.2291 22.3959 19.3958 22.3959 20.8333V21.0562C22.3959 21.4706 22.2313 21.868 21.9382 22.1611C21.6452 22.4541 21.2478 22.6187 20.8334 22.6187C20.419 22.6187 20.0215 22.4541 19.7285 22.1611C19.4355 21.868 19.2709 21.4706 19.2709 21.0562V20.8333C19.2709 19.3138 19.8745 17.8566 20.9489 16.7822C22.0233 15.7077 23.4806 15.1041 25 15.1041H25.2417C26.3625 15.1046 27.4562 15.4483 28.3759 16.089C29.2955 16.7296 29.9969 17.6365 30.3858 18.6876C30.7746 19.7388 30.8323 20.8838 30.5511 21.9687C30.2698 23.0536 29.6631 24.0264 28.8125 24.7562L27.2084 26.1312C27.0071 26.3059 26.8454 26.5215 26.734 26.7637C26.6227 27.0058 26.5642 27.2689 26.5625 27.5354V28.6458C26.5625 29.0602 26.3979 29.4576 26.1049 29.7506C25.8119 30.0437 25.4144 30.2083 25 30.2083C24.5856 30.2083 24.1882 30.0437 23.8952 29.7506C23.6022 29.4576 23.4375 29.0602 23.4375 28.6458V27.5354C23.4375 26.0833 24.0709 24.7041 25.173 23.7604L26.7792 22.3854C27.1457 22.0712 27.4072 21.6523 27.5285 21.1851C27.6497 20.7179 27.6249 20.2247 27.4575 19.772C27.29 19.3192 26.9879 18.9287 26.5917 18.6528C26.1956 18.377 25.7244 18.2291 25.2417 18.2291H25ZM25 35.4166C25.5526 35.4166 26.0825 35.1971 26.4732 34.8064C26.8639 34.4157 27.0834 33.8858 27.0834 33.3333C27.0834 32.7808 26.8639 32.2509 26.4732 31.8602C26.0825 31.4695 25.5526 31.25 25 31.25C24.4475 31.25 23.9176 31.4695 23.5269 31.8602C23.1362 32.2509 22.9167 32.7808 22.9167 33.3333C22.9167 33.8858 23.1362 34.4157 23.5269 34.8064C23.9176 35.1971 24.4475 35.4166 25 35.4166Z" fill="white"/>
<path d="M6.77087 25C6.77087 20.1654 8.69144 15.5287 12.1101 12.1101C15.5287 8.69144 20.1654 6.77087 25 6.77087C29.8347 6.77087 34.4714 8.69144 37.89 12.1101C41.3086 15.5287 43.2292 20.1654 43.2292 25C43.2292 29.8347 41.3086 34.4714 37.89 37.89C34.4714 41.3086 29.8347 43.2292 25 43.2292C20.1654 43.2292 15.5287 41.3086 12.1101 37.89C8.69144 34.4714 6.77087 29.8347 6.77087 25ZM25 9.89587C23.0165 9.89587 21.0524 10.2866 19.2199 11.0456C17.3874 11.8047 15.7223 12.9172 14.3198 14.3198C12.9172 15.7223 11.8047 17.3874 11.0456 19.2199C10.2866 21.0524 9.89587 23.0165 9.89587 25C9.89587 26.9835 10.2866 28.9476 11.0456 30.7802C11.8047 32.6127 12.9172 34.2777 14.3198 35.6803C15.7223 37.0828 17.3874 38.1954 19.2199 38.9545C21.0524 39.7135 23.0165 40.1042 25 40.1042C29.0059 40.1042 32.8477 38.5129 35.6803 35.6803C38.5129 32.8477 40.1042 29.0059 40.1042 25C40.1042 20.9942 38.5129 17.1524 35.6803 14.3198C32.8477 11.4872 29.0059 9.89587 25 9.89587Z" fill="white"/>
</svg>
