<svg width="40" height="40" viewBox="0 0 40 40" fill="none" xmlns="http://www.w3.org/2000/svg">
<path d="M13.3333 23.7334C17.1733 23.7334 20.48 24.4054 22.8667 26.0134C25.3387 27.6801 26.6667 30.2481 26.6667 33.6001C26.6452 33.9391 26.4954 34.2572 26.2477 34.4898C26 34.7223 25.6731 34.8517 25.3333 34.8517C24.9936 34.8517 24.6666 34.7223 24.419 34.4898C24.1713 34.2572 24.0215 33.9391 24 33.6001C24 31.0454 23.0453 29.3441 21.3787 28.2214C19.624 27.0427 16.9333 26.4001 13.3333 26.4001C9.73333 26.4001 7.04 27.0427 5.288 28.2241C3.62133 29.3467 2.66667 31.0481 2.66667 33.6027C2.64521 33.9418 2.4954 34.2599 2.24771 34.4924C2.00002 34.7249 1.67306 34.8544 1.33333 34.8544C0.993609 34.8544 0.666645 34.7249 0.418954 34.4924C0.171264 34.2599 0.0214539 33.9418 0 33.6027C0 30.2481 1.32533 27.6801 3.79733 26.0134C6.184 24.4054 9.49333 23.7334 13.3333 23.7334ZM26.6 23.7334C30.4373 23.7334 33.7467 24.4054 36.1333 26.0134C38.6053 27.6801 39.9333 30.2481 39.9333 33.6027C39.9333 33.9563 39.7929 34.2955 39.5428 34.5455C39.2928 34.7956 38.9536 34.9361 38.6 34.9361C38.2464 34.9361 37.9072 34.7956 37.6572 34.5455C37.4071 34.2955 37.2667 33.9563 37.2667 33.6027C37.2667 31.0481 36.312 29.3467 34.6427 28.2241C33.2613 27.2934 31.3013 26.7041 28.7707 26.4907C28.1403 25.461 27.3582 24.5323 26.4507 23.7361L26.6 23.7334ZM13.3333 4.93339C15.5245 4.98861 17.6074 5.89784 19.1376 7.46712C20.6679 9.03641 21.5243 11.1415 21.5243 13.3334C21.5243 15.5253 20.6679 17.6304 19.1376 19.1997C17.6074 20.7689 15.5245 21.6782 13.3333 21.7334C11.1055 21.7334 8.96894 20.8484 7.39364 19.2731C5.81833 17.6978 4.93333 15.5612 4.93333 13.3334C4.93333 11.1056 5.81833 8.969 7.39364 7.39369C8.96894 5.81839 11.1055 4.93339 13.3333 4.93339ZM26.6 4.93339C28.8278 4.93339 30.9644 5.81839 32.5397 7.39369C34.115 8.969 35 11.1056 35 13.3334C35 15.5612 34.115 17.6978 32.5397 19.2731C30.9644 20.8484 28.8278 21.7334 26.6 21.7334C25.2027 21.7334 23.8907 21.3867 22.7333 20.7841C23.2914 20.0823 23.769 19.3202 24.1573 18.5121C25.0312 18.9255 25.9954 19.1112 26.9603 19.052C27.9252 18.9927 28.8594 18.6905 29.6762 18.1733C30.493 17.6562 31.1657 16.9409 31.6318 16.094C32.098 15.2471 32.3424 14.2961 32.3424 13.3294C32.3424 12.3627 32.098 11.4117 31.6318 10.5648C31.1657 9.71787 30.493 9.00259 29.6762 8.48543C28.8594 7.96828 27.9252 7.66604 26.9603 7.60682C25.9954 7.5476 25.0312 7.73333 24.1573 8.14672C23.7678 7.3403 23.2893 6.58001 22.7307 5.88005C23.9232 5.25424 25.2506 4.92926 26.5973 4.93339M13.3333 7.60005C11.843 7.64551 10.429 8.26949 9.39089 9.33973C8.35279 10.41 7.77222 11.8424 7.77222 13.3334C7.77222 14.8244 8.35279 16.2568 9.39089 17.327C10.429 18.3973 11.843 19.0213 13.3333 19.0667C14.8539 19.0667 16.3122 18.4627 17.3874 17.3875C18.4626 16.3123 19.0667 14.854 19.0667 13.3334C19.0667 11.8128 18.4626 10.3545 17.3874 9.27931C16.3122 8.2041 14.8539 7.60005 13.3333 7.60005Z" fill="white"/>
</svg>
